<?xml version="1.0" encoding="UTF-8" standalone="no"?><!DOCTYPE svg PUBLIC "-//W3C//DTD SVG 1.1//EN" "http://www.w3.org/Graphics/SVG/1.1/DTD/svg11.dtd"><svg width="100%" height="100%" viewBox="0 0 200 200" version="1.1" xmlns="http://www.w3.org/2000/svg" xmlns:xlink="http://www.w3.org/1999/xlink" xml:space="preserve" xmlns:serif="http://www.serif.com/" style="fill-rule:evenodd;clip-rule:evenodd;stroke-linejoin:round;stroke-miterlimit:2;"><path d="M200,124.611c0,17.194 -13.661,31.153 -30.488,31.153l-91.463,0c-8.413,0 -15.244,6.98 -15.244,15.576l-15.244,0c0,-17.194 13.661,-31.153 30.488,-31.153l91.463,0c8.413,0 15.244,-6.98 15.244,-15.576c0,-8.597 -6.831,-15.576 -15.244,-15.576c-16.827,0 -30.488,-13.959 -30.488,-31.153c0,-17.194 13.661,-31.153 30.488,-31.153c8.413,0 15.244,-6.98 15.244,-15.576c0,-8.597 -6.831,-15.576 -15.244,-15.576l-60.976,0c-8.413,0 -15.244,6.98 -15.244,15.576l-15.244,0c0,-17.194 13.661,-31.153 30.488,-31.153l60.976,0c16.827,0 30.488,13.959 30.488,31.153c0,17.194 -13.661,31.153 -30.488,31.153c-8.413,0 -15.244,6.98 -15.244,15.576c0,8.597 6.831,15.576 15.244,15.576c16.827,0 30.488,13.959 30.488,31.153Zm-200,-49.221c0,-17.194 13.661,-31.153 30.488,-31.153l91.463,0c8.413,0 15.244,-6.98 15.244,-15.576l15.244,0c0,17.194 -13.661,31.153 -30.488,31.153l-91.463,0c-8.413,0 -15.244,6.98 -15.244,15.576c0,8.597 6.831,15.576 15.244,15.576c16.827,0 30.488,13.959 30.488,31.153c0,17.194 -13.661,31.153 -30.488,31.153c-8.413,0 -15.244,6.98 -15.244,15.576c0,8.597 6.831,15.576 15.244,15.576l60.976,0c8.413,0 15.244,-6.98 15.244,-15.576l15.244,0c0,17.194 -13.661,31.153 -30.488,31.153l-60.976,0c-16.827,0 -30.488,-13.959 -30.488,-31.153c0,-17.194 13.661,-31.153 30.488,-31.153c8.413,0 15.244,-6.98 15.244,-15.576c0,-8.597 -6.831,-15.576 -15.244,-15.576c-16.827,0 -30.488,-13.959 -30.488,-31.153Zm100,-6.542c16.827,0 30.488,13.959 30.488,31.153c0,17.194 -13.661,31.153 -30.488,31.153c-16.827,0 -30.488,-13.959 -30.488,-31.153c0,-17.194 13.661,-31.153 30.488,-31.153Z" style="fill:#2d3e4c;"/></svg>