<?xml version="1.0" encoding="UTF-8" standalone="no"?><!DOCTYPE svg PUBLIC "-//W3C//DTD SVG 1.1//EN" "http://www.w3.org/Graphics/SVG/1.1/DTD/svg11.dtd"><svg width="100%" height="100%" viewBox="0 0 4961 3508" version="1.1" xmlns="http://www.w3.org/2000/svg" xmlns:xlink="http://www.w3.org/1999/xlink" xml:space="preserve" xmlns:serif="http://www.serif.com/" style="fill-rule:evenodd;clip-rule:evenodd;stroke-linejoin:round;stroke-miterlimit:2;"><path d="M3956.693,752.324l0,2003.225c0,99.063 -80.427,179.49 -179.49,179.49l-2593.776,0c-99.063,0 -179.49,-80.427 -179.49,-179.49l0,-2003.225c0,-99.063 80.427,-179.49 179.49,-179.49l2593.776,0c99.063,0 179.49,80.427 179.49,179.49Z"/><path d="M1659.964,1753.937c-71.834,-61.749 -117.254,-152.599 -117.254,-253.82c0,-185.847 153.114,-336.731 341.709,-336.731l1088.236,0c188.594,0 341.709,150.884 341.709,336.731c0,101.221 -45.42,192.071 -117.254,253.82c71.834,61.749 117.254,152.599 117.254,253.82c0,185.847 -153.114,336.731 -341.709,336.731l-1088.236,0c-188.594,0 -341.709,-150.884 -341.709,-336.731c0,-101.221 45.42,-192.071 117.254,-253.82Zm224.454,-422.186c-94.297,0 -170.854,75.442 -170.854,168.365c0,92.923 76.557,168.365 170.854,168.365c94.297,0 170.854,-75.442 170.854,-168.365c0,-92.923 -76.557,-168.365 -170.854,-168.365Zm1088.236,339.275l0,-2.544c94.297,0 170.854,-75.442 170.854,-168.365c0,-92.923 -76.557,-168.365 -170.854,-168.365l-792.303,0c29.108,49.541 45.775,107.05 45.775,168.365c0,185.847 -153.114,336.731 -341.709,336.731l0,2.544c-94.297,0 -170.854,75.442 -170.854,168.365c0,92.923 76.557,168.365 170.854,168.365l792.303,-0c-29.108,-49.541 -45.775,-107.05 -45.775,-168.365c-0,-185.847 153.114,-336.731 341.709,-336.731Zm-0,505.096c94.297,0 170.854,-75.442 170.854,-168.365c0,-92.923 -76.557,-168.365 -170.854,-168.365c-94.297,0 -170.854,75.442 -170.854,168.365c0,92.923 76.557,168.365 170.854,168.365Z" style="fill:#2587db;"/></svg>