<?xml version="1.0" encoding="UTF-8" standalone="no"?><!DOCTYPE svg PUBLIC "-//W3C//DTD SVG 1.1//EN" "http://www.w3.org/Graphics/SVG/1.1/DTD/svg11.dtd"><svg width="100%" height="100%" viewBox="0 0 4961 3508" version="1.1" xmlns="http://www.w3.org/2000/svg" xmlns:xlink="http://www.w3.org/1999/xlink" xml:space="preserve" xmlns:serif="http://www.serif.com/" style="fill-rule:evenodd;clip-rule:evenodd;stroke-linejoin:round;stroke-miterlimit:2;"><path d="M2480.315,-17.717c977.802,0 1771.654,793.851 1771.654,1771.654c0,977.802 -793.851,1771.654 -1771.654,1771.654c-977.802,0 -1771.654,-793.851 -1771.654,-1771.654c0,-977.802 793.851,-1771.654 1771.654,-1771.654Zm-0,295.276c-814.835,0 -1476.378,661.543 -1476.378,1476.378c-0,814.835 661.543,1476.378 1476.378,1476.378c814.835,0 1476.378,-661.543 1476.378,-1476.378c0,-814.835 -661.543,-1476.378 -1476.378,-1476.378Zm-826.838,621.588l1651.724,0l1.953,-1.622l-5.87,373.381l-1271.24,1055.98l1254.64,0l-4.456,283.465l-1626.751,0l0,-339.168l1310.475,-1088.571l-1310.475,0l0,-283.465Z" style="fill:#6388c0;"/></svg>