<?xml version="1.0" encoding="UTF-8" standalone="no"?><!DOCTYPE svg PUBLIC "-//W3C//DTD SVG 1.1//EN" "http://www.w3.org/Graphics/SVG/1.1/DTD/svg11.dtd"><svg width="100%" height="100%" viewBox="0 0 1000 1000" version="1.1" xmlns="http://www.w3.org/2000/svg" xmlns:xlink="http://www.w3.org/1999/xlink" xml:space="preserve" xmlns:serif="http://www.serif.com/" style="fill-rule:evenodd;clip-rule:evenodd;stroke-linejoin:round;stroke-miterlimit:2;"><path d="M261.13,404.122c-45.935,-9.031 -80.63,-49.557 -80.63,-98.122c-0,-55.192 44.808,-100 100,-100l226,0c39.062,0 72.923,22.445 89.378,55.13c9.031,-45.935 49.557,-80.63 98.122,-80.63c55.192,0 100,44.808 100,100l0,226c0,39.062 -22.445,72.923 -55.13,89.378c45.935,9.031 80.63,49.557 80.63,98.122c0,55.192 -44.808,100 -100,100l-226,0c-39.062,0 -72.923,-22.445 -89.378,-55.13c-9.031,45.935 -49.557,80.63 -98.122,80.63c-55.192,0 -100,-44.808 -100,-100l-0,-226c0,-39.062 22.445,-72.923 55.13,-89.378Zm345.37,-75.202l0,64.58l87.5,0l0,163c27.596,0 50,-22.404 50,-50l0,-139.396c-14.712,8.518 -31.791,13.396 -50,13.396c-37.631,0 -70.435,-20.831 -87.5,-51.58Zm-213,64.58l0,-87.5l163,-0c0,-27.596 -22.404,-50 -50,-50l-139.396,-0c8.518,14.712 13.396,31.791 13.396,50c0,37.631 -20.831,70.435 -51.58,87.5l64.58,0Zm277.58,213l-64.58,0l0,87.5l-163,0c0,27.596 22.404,50 50,50l139.396,0c-8.518,-14.712 -13.396,-31.791 -13.396,-50c0,-37.631 20.831,-70.435 51.58,-87.5Zm-277.58,64.58l0,-64.58l-87.5,0l-0,-163c-27.596,0 -50,22.404 -50,50l0,139.396c14.712,-8.518 31.791,-13.396 50,-13.396c37.631,0 70.435,20.831 87.5,51.58Zm326,72.92c27.596,0 50,-22.404 50,-50c0,-27.596 -22.404,-50 -50,-50c-27.596,0 -50,22.404 -50,50c0,27.596 22.404,50 50,50Zm-463.5,-24.5c0,27.596 22.404,50 50,50c27.596,0 50,-22.404 50,-50c0,-27.596 -22.404,-50 -50,-50c-27.596,0 -50,22.404 -50,50Zm24.5,-463.5c-27.596,0 -50,22.404 -50,50c-0,27.596 22.404,50 50,50c27.596,0 50,-22.404 50,-50c0,-27.596 -22.404,-50 -50,-50Zm463.5,24.5c0,-27.596 -22.404,-50 -50,-50c-27.596,0 -50,22.404 -50,50c0,27.596 22.404,50 50,50c27.596,0 50,-22.404 50,-50Z" style="fill:#25323e;"/></svg>