<?xml version="1.0" encoding="UTF-8" standalone="no"?><!DOCTYPE svg PUBLIC "-//W3C//DTD SVG 1.1//EN" "http://www.w3.org/Graphics/SVG/1.1/DTD/svg11.dtd"><svg width="100%" height="100%" viewBox="0 0 1000 1000" version="1.1" xmlns="http://www.w3.org/2000/svg" xmlns:xlink="http://www.w3.org/1999/xlink" xml:space="preserve" xmlns:serif="http://www.serif.com/" style="fill-rule:evenodd;clip-rule:evenodd;stroke-linejoin:round;stroke-miterlimit:2;"><rect x="0" y="0" width="1000" height="1000"/><path d="M828,579c0,55.192 -44.808,100 -100,100l-300,0c-27.596,0 -50,22.404 -50,50l-50,0c0,-55.192 44.808,-100 100,-100l300,0c27.596,0 50,-22.404 50,-50c0,-27.596 -22.404,-50 -50,-50c-55.192,0 -100,-44.808 -100,-100c0,-55.192 44.808,-100 100,-100c27.596,0 50,-22.404 50,-50c0,-27.596 -22.404,-50 -50,-50l-200,0c-27.596,0 -50,22.404 -50,50l-50,0c0,-55.192 44.808,-100 100,-100l200,0c55.192,0 100,44.808 100,100c0,55.192 -44.808,100 -100,100c-27.596,0 -50,22.404 -50,50c0,27.596 22.404,50 50,50c55.192,0 100,44.808 100,100Zm-656,-158c0,-55.192 44.808,-100 100,-100l300,0c27.596,0 50,-22.404 50,-50l50,0c0,55.192 -44.808,100 -100,100l-300,0c-27.596,0 -50,22.404 -50,50c0,27.596 22.404,50 50,50c55.192,0 100,44.808 100,100c0,55.192 -44.808,100 -100,100c-27.596,0 -50,22.404 -50,50c0,27.596 22.404,50 50,50l200,0c27.596,0 50,-22.404 50,-50l50,0c0,55.192 -44.808,100 -100,100l-200,0c-55.192,0 -100,-44.808 -100,-100c0,-55.192 44.808,-100 100,-100c27.596,0 50,-22.404 50,-50c0,-27.596 -22.404,-50 -50,-50c-55.192,0 -100,-44.808 -100,-100Zm328,-21c55.192,0 100,44.808 100,100c0,55.192 -44.808,100 -100,100c-55.192,0 -100,-44.808 -100,-100c0,-55.192 44.808,-100 100,-100Z" style="fill:url(#_Linear1);"/><defs><linearGradient id="_Linear1" x1="0" y1="0" x2="1" y2="0" gradientUnits="userSpaceOnUse" gradientTransform="matrix(99.51926,190,-190,99.51926,446,343.521679)"><stop offset="0" style="stop-color:#00ff6c;stop-opacity:1"/><stop offset="1" style="stop-color:#004099;stop-opacity:1"/></linearGradient></defs></svg>