<?xml version="1.0" encoding="UTF-8" standalone="no"?><!DOCTYPE svg PUBLIC "-//W3C//DTD SVG 1.1//EN" "http://www.w3.org/Graphics/SVG/1.1/DTD/svg11.dtd"><svg width="100%" height="100%" viewBox="0 0 4961 3508" version="1.1" xmlns="http://www.w3.org/2000/svg" xmlns:xlink="http://www.w3.org/1999/xlink" xml:space="preserve" xmlns:serif="http://www.serif.com/" style="fill-rule:evenodd;clip-rule:evenodd;stroke-linejoin:round;stroke-miterlimit:2;"><rect x="480.753" y="0" width="3805.803" height="3507.874"/><path d="M3661.417,1753.937c0,651.868 -529.234,1181.102 -1181.102,1181.102l0,-236.22c521.495,0 944.882,-423.387 944.882,-944.882l236.22,0Zm-1003.186,-0c0,184.721 -87.753,357.132 -177.917,502.778l0,-502.778l177.917,-0Zm-177.917,0l-236.22,-0l0,915.062c-407.343,-105.003 -708.661,-475.122 -708.661,-915.062l-236.22,-0c0,-651.868 529.234,-1181.102 1181.102,-1181.102l0,236.22c-336.774,0 -164.382,176.569 0,442.104l0,502.778Z" style="fill:#48d824;"/></svg>