<?xml version="1.0" encoding="UTF-8" standalone="no"?><!DOCTYPE svg PUBLIC "-//W3C//DTD SVG 1.1//EN" "http://www.w3.org/Graphics/SVG/1.1/DTD/svg11.dtd"><svg width="100%" height="100%" viewBox="0 0 656 642" version="1.1" xmlns="http://www.w3.org/2000/svg" xmlns:xlink="http://www.w3.org/1999/xlink" xml:space="preserve" xmlns:serif="http://www.serif.com/" style="fill-rule:evenodd;clip-rule:evenodd;stroke-linejoin:round;stroke-miterlimit:2;"><path d="M656,400c0,55.192 -44.808,100 -100,100l-300,0c-27.596,0 -50,22.404 -50,50l-50,0c0,-55.192 44.808,-100 100,-100l300,0c27.596,0 50,-22.404 50,-50c0,-27.596 -22.404,-50 -50,-50c-55.192,0 -100,-44.808 -100,-100c0,-55.192 44.808,-100 100,-100c27.596,0 50,-22.404 50,-50c0,-27.596 -22.404,-50 -50,-50l-200,0c-27.596,0 -50,22.404 -50,50l-50,0c0,-55.192 44.808,-100 100,-100l200,0c55.192,0 100,44.808 100,100c0,55.192 -44.808,100 -100,100c-27.596,0 -50,22.404 -50,50c0,27.596 22.404,50 50,50c55.192,0 100,44.808 100,100Zm-656,-158c0,-55.192 44.808,-100 100,-100l300,0c27.596,0 50,-22.404 50,-50l50,0c0,55.192 -44.808,100 -100,100l-300,0c-27.596,0 -50,22.404 -50,50c0,27.596 22.404,50 50,50c55.192,0 100,44.808 100,100c0,55.192 -44.808,100 -100,100c-27.596,0 -50,22.404 -50,50c0,27.596 22.404,50 50,50l200,0c27.596,0 50,-22.404 50,-50l50,0c0,55.192 -44.808,100 -100,100l-200,0c-55.192,0 -100,-44.808 -100,-100c0,-55.192 44.808,-100 100,-100c27.596,0 50,-22.404 50,-50c0,-27.596 -22.404,-50 -50,-50c-55.192,0 -100,-44.808 -100,-100Zm328,-21c55.192,0 100,44.808 100,100c0,55.192 -44.808,100 -100,100c-55.192,0 -100,-44.808 -100,-100c0,-55.192 44.808,-100 100,-100Z" style="fill:#0089ff;"/></svg>