<?xml version="1.0" encoding="UTF-8" standalone="no"?><!DOCTYPE svg PUBLIC "-//W3C//DTD SVG 1.1//EN" "http://www.w3.org/Graphics/SVG/1.1/DTD/svg11.dtd"><svg width="100%" height="100%" viewBox="0 0 1000 1000" version="1.1" xmlns="http://www.w3.org/2000/svg" xmlns:xlink="http://www.w3.org/1999/xlink" xml:space="preserve" xmlns:serif="http://www.serif.com/" style="fill-rule:evenodd;clip-rule:evenodd;stroke-linejoin:round;stroke-miterlimit:2;"><path d="M1000,54.074l0,891.852c0,29.844 -24.23,54.074 -54.074,54.074l-891.852,0c-29.844,0 -54.074,-24.23 -54.074,-54.074l0,-891.852c0,-29.844 24.23,-54.074 54.074,-54.074l891.852,0c29.844,0 54.074,24.23 54.074,54.074Z"/><path d="M716.908,500c20.273,18.298 33.092,45.22 33.092,75.215c0,55.073 -43.212,99.785 -96.438,99.785l-307.125,0c-53.225,0 -96.438,-44.712 -96.438,-99.785c-0,-29.995 12.819,-56.917 33.092,-75.215c-20.273,-18.298 -33.092,-45.22 -33.092,-75.215c-0,-55.073 43.212,-99.785 96.438,-99.785l307.125,-0c53.225,0 96.438,44.712 96.438,99.785c0,29.995 -12.819,56.917 -33.092,75.215Zm-63.346,125.108c26.613,0 48.219,-22.356 48.219,-49.892c0,-27.536 -21.606,-49.892 -48.219,-49.892c-26.613,0 -48.219,22.356 -48.219,49.892c0,27.536 21.606,49.892 48.219,49.892Zm-307.125,-100.538l0,0.754c-26.613,0 -48.219,22.356 -48.219,49.892c0,27.536 21.606,49.892 48.219,49.892l223.605,-0c-8.215,-14.681 -12.919,-31.723 -12.919,-49.892c-0,-55.073 43.212,-99.785 96.438,-99.785l0,-0.754c26.613,0 48.219,-22.356 48.219,-49.892c0,-27.536 -21.606,-49.892 -48.219,-49.892l-223.605,0c8.215,14.681 12.919,31.723 12.919,49.892c0,55.073 -43.212,99.785 -96.438,99.785Zm0,-149.677c-26.613,0 -48.219,22.356 -48.219,49.892c0,27.536 21.606,49.892 48.219,49.892c26.613,0 48.219,-22.356 48.219,-49.892c0,-27.536 -21.606,-49.892 -48.219,-49.892Z" style="fill:#1169df;"/></svg>