<svg version="1.1" xmlns="http://www.w3.org/2000/svg" style="display: block;" viewBox="0 0 2048 2048" width="1024" height="1024" preserveAspectRatio="none">
<defs>
	<linearGradient id="Gradient1" gradientUnits="userSpaceOnUse" x1="1405.58" y1="722.721" x2="1298.96" y2="660.068">
		<stop class="stop0" offset="0" stop-opacity="1" stop-color="rgb(236,110,53)"/>
		<stop class="stop1" offset="1" stop-opacity="1" stop-color="rgb(255,172,87)"/>
	</linearGradient>
	<linearGradient id="Gradient2" gradientUnits="userSpaceOnUse" x1="1086.37" y1="960.689" x2="895.171" y2="694.891">
		<stop class="stop0" offset="0" stop-opacity="1" stop-color="rgb(240,125,57)"/>
		<stop class="stop1" offset="1" stop-opacity="1" stop-color="rgb(246,155,78)"/>
	</linearGradient>
	<linearGradient id="Gradient3" gradientUnits="userSpaceOnUse" x1="1116.8" y1="1384.35" x2="848.151" y2="1015.83">
		<stop class="stop0" offset="0" stop-opacity="1" stop-color="rgb(227,83,39)"/>
		<stop class="stop1" offset="1" stop-opacity="1" stop-color="rgb(244,130,58)"/>
	</linearGradient>
</defs>
<path transform="translate(0,0)" fill="url(#Gradient3)" d="M 1261.72 808.563 C 1268.55 809.953 1282.78 829.771 1287.38 835.872 C 1328.69 890.673 1351.92 948.065 1359.12 1016.24 C 1367.6 1099.94 1342.95 1183.64 1290.45 1249.37 C 1216.64 1339.94 1116.05 1356.85 1009.18 1380.1 L 834.08 1418.79 L 678.322 1452.88 C 658.655 1457.03 626.494 1465.27 608.076 1467.12 C 603.462 1462.14 601.513 1460.07 597.736 1454.38 C 605.211 1420.12 621.407 1377.6 632.689 1343.26 C 654.413 1277.38 675.74 1211.37 696.668 1145.23 C 699.716 1137.82 703.276 1124.64 706.708 1115.67 C 722.283 1117.5 745.817 1123.33 761.339 1126.88 L 856.045 1149.4 C 856.837 1155.26 857.537 1158.65 858.903 1164.33 C 850.419 1173.46 843.194 1183.93 835.105 1193.02 C 823.503 1206.07 812.586 1219.13 801.235 1232.33 L 699.703 1349.5 C 691.312 1359.21 644.087 1412.12 640.976 1420.46 C 697.211 1367.19 750.534 1312.5 805.445 1257.98 L 1106.85 960.419 C 1145.89 922.333 1183.65 882.983 1223.61 845.806 C 1236.52 833.792 1248.02 820.13 1261.72 808.563 z"/>
<path transform="translate(0,0)" fill="url(#Gradient2)" d="M 1260.41 617.316 C 1262.44 617.036 1265.38 616.364 1266.36 618.603 C 1269.23 625.192 1266.24 635.337 1264.6 642.011 C 1256.44 648.793 1246.1 663.067 1239.28 671.726 L 1193.6 730.523 L 990.484 988.224 C 971.906 1011.82 954.322 1036.94 935.422 1060.37 C 927.885 1069.72 917.357 1084.36 908.919 1092.44 C 888.699 1085.81 858.681 1071.44 839.005 1062.58 C 810.645 1049.83 781.868 1037.62 753.714 1024.6 C 734.243 1017.93 713.231 1006.43 694.337 997.715 C 668.927 985.995 675.615 970.254 680.048 948.266 C 688.384 906.916 704.795 873.434 727.378 838.292 C 805.248 717.116 931.488 700.959 1059.9 667.752 C 1111.71 653.956 1163.67 640.747 1215.77 628.127 C 1230.78 624.526 1245.21 620.399 1260.41 617.316 z"/>
<path transform="translate(0,0)" fill="url(#Gradient1)" d="M 1345.77 628.926 C 1380.69 625.012 1412.19 650.068 1416.24 684.968 C 1420.29 719.868 1395.36 751.472 1360.47 755.657 C 1325.4 759.864 1293.58 734.763 1289.51 699.671 C 1285.44 664.579 1310.66 632.861 1345.77 628.926 z"/>
</svg>