

<svg
   width="16"
   height="16"
   viewBox="0 0 16 16"
   version="1.1"
   id="svg1"


  
  <defs
     id="defs1">
    <linearGradient
       id="linearGradient16"
       inkscape:collect="always">
      <stop
         style="stop-color:#00ffff;stop-opacity:1;"
         offset="0"
         id="stop16" />
      <stop
         style="stop-color:#f2f2f2;stop-opacity:1"
         offset="1"
         id="stop17" />
    </linearGradient>
    <linearGradient
       inkscape:collect="always"
       xlink:href="#linearGradient16"
       id="linearGradient17"
       x1="8.4714546"
       y1="4.3020258"
       x2="8.5896168"
       y2="12.457952"
       gradientUnits="userSpaceOnUse" />
  </defs>
  <g
     inkscape:label="Layer 1"
     inkscape:groupmode="layer"
     id="layer1">
    <rect
       style="font-variation-settings:normal;opacity:0.95;vector-effect:none;fill:#000000;fill-opacity:1;fill-rule:evenodd;stroke-width:1.75748;stroke-linecap:butt;stroke-linejoin:miter;stroke-miterlimit:4;stroke-dasharray:none;stroke-dashoffset:0;stroke-opacity:1;-inkscape-stroke:none;stop-color:#000000;stop-opacity:1"
       id="rect16"
       width="16"
       height="16"
       x="0"
       y="0"
       ry="1.4732965" />
    <path
       id="rect14"
       style="font-variation-settings:normal;opacity:0.95;vector-effect:none;fill:url(#linearGradient17);fill-opacity:1;fill-rule:evenodd;stroke-width:1.75748;stroke-linecap:butt;stroke-linejoin:miter;stroke-miterlimit:4;stroke-dasharray:none;stroke-dashoffset:0;stroke-opacity:1;-inkscape-stroke:none;stop-color:#000000;stop-opacity:1"
       d="m 9.4126925,2.8722793 -2.9296876,4 V 2.9250137 l -4,6.7421875 V 10.872279 H 7.4712861 L 10.400973,6.8722793 v 3.9472657 l 4,-6.7421875 V 2.8722793 Z M 6.0064423,12.163295 c -0.023012,0.0021 -0.046312,0.01081 -0.068359,0.02734 -0.025197,0.01764 -0.042656,0.03995 -0.052734,0.06641 l -0.2597656,0.716797 c -0.00756,0.02268 -0.011719,0.04429 -0.011719,0.06445 0,0.03654 0.011219,0.06591 0.035156,0.08984 0.023937,0.02268 0.057341,0.03516 0.097656,0.03516 h 0.6347656 c 0.051653,0 0.1019501,-0.01815 0.1523438,-0.05469 0.050394,-0.03779 0.084618,-0.08311 0.1035156,-0.134765 l 0.029297,-0.07422 c 0.00378,-0.01134 0.00586,-0.02117 0.00586,-0.03125 0,-0.04157 -0.022312,-0.0625 -0.066406,-0.0625 H 6.4439423 c -0.052913,0 -0.1058564,0.01885 -0.15625,0.05664 -0.049134,0.03653 -0.083358,0.08116 -0.1035156,0.132812 l -0.00586,0.01563 H 6.0572235 L 6.297458,12.352746 c 0.00882,-0.02268 0.013672,-0.0443 0.013672,-0.06445 0,-0.03653 -0.011219,-0.06717 -0.035156,-0.08984 -0.023937,-0.02394 -0.057341,-0.03516 -0.097656,-0.03516 h -0.16211 c -0.00331,0 -0.00648,-2.95e-4 -0.00977,0 z m 1.0488281,0 c -0.022047,0.0021 -0.044359,0.01081 -0.066406,0.02734 -0.025197,0.01764 -0.042656,0.03995 -0.052734,0.06641 l -0.2597656,0.716797 c -0.00756,0.02268 -0.011719,0.04429 -0.011719,0.06445 0,0.03654 0.011219,0.06591 0.035156,0.08984 0.023937,0.02268 0.057341,0.03516 0.097656,0.03516 h 0.3769533 l -0.082031,0.226562 h -0.121094 l 0.00586,-0.01758 c 0.00882,-0.02268 0.011719,-0.04429 0.011719,-0.06445 0,-0.03654 -0.011219,-0.06591 -0.035156,-0.08984 -0.023937,-0.02268 -0.055388,-0.03516 -0.095703,-0.03516 H 6.6939423 c -0.026457,0 -0.050975,0.0097 -0.076172,0.02734 -0.025197,0.0189 -0.041962,0.0419 -0.050781,0.06836 l -0.029297,0.07422 c -0.00756,0.02268 -0.011719,0.04234 -0.011719,0.0625 10e-8,0.03654 0.013172,0.06717 0.037109,0.08984 0.023937,0.02394 0.055388,0.03516 0.095703,0.03516 H 7.293551 c 0.051653,0 0.1019501,-0.01885 0.1523437,-0.05664 0.050394,-0.03653 0.086571,-0.07921 0.1054688,-0.130859 l 0.3984374,-1.095703 c 0.00378,-0.01134 0.00586,-0.02117 0.00586,-0.03125 -10e-8,-0.04157 -0.022312,-0.0625 -0.066406,-0.0625 H 7.7271454 c -0.051653,0 -0.1039032,0.01885 -0.1542969,0.05664 -0.050394,0.03654 -0.084618,0.08116 -0.1035156,0.132813 L 7.2290985,13.010951 H 7.1080048 l 0.2402344,-0.658203 c 0.00756,-0.02268 0.011719,-0.0443 0.011719,-0.06445 0,-0.03653 -0.011219,-0.06717 -0.035156,-0.08984 -0.023937,-0.02394 -0.057341,-0.03516 -0.097656,-0.03516 H 7.0650361 c -0.00315,0 -0.00662,-2.95e-4 -0.00977,0 z m 1.1679688,0 c -0.046024,0.0041 -0.092624,0.02357 -0.1367188,0.05664 -0.050394,0.03654 -0.084618,0.08116 -0.1035156,0.132813 l -0.2597656,0.714844 c -0.00378,0.01134 -0.00586,0.02312 -0.00586,0.0332 0,0.04157 0.022312,0.0625 0.066406,0.0625 h 0.1621093 c 0.051654,0 0.1019503,-0.01815 0.1523438,-0.05469 0.050394,-0.03779 0.084618,-0.08311 0.1035156,-0.134765 L 8.4419884,12.31368 H 8.563082 l -0.2402344,0.660157 c -0.00756,0.02268 -0.00977,0.04429 -0.00977,0.06445 0,0.03654 0.011219,0.06591 0.035156,0.08984 0.023937,0.02268 0.055388,0.03516 0.095703,0.03516 h 0.1640626 c 0.026457,0 0.050975,-0.0097 0.076172,-0.02734 0.025197,-0.0189 0.041962,-0.0419 0.050781,-0.06836 l 0.2617189,-0.714844 c 0.00882,-0.02268 0.013672,-0.0443 0.013672,-0.06445 0,-0.03653 -0.013172,-0.06717 -0.037109,-0.08984 -0.023937,-0.02394 -0.055388,-0.03516 -0.095703,-0.03516 H 8.2427704 c -0.00661,0 -0.012956,-5.91e-4 -0.019531,0 z m 1.138672,0 c -0.045059,0.0041 -0.088718,0.02357 -0.1328127,0.05664 -0.050394,0.03654 -0.084618,0.08116 -0.1035156,0.132813 l -0.2265624,0.621094 c -0.00756,0.02268 -0.011719,0.04429 -0.011719,0.06445 0,0.03654 0.011219,0.06591 0.035156,0.08984 0.023937,0.02268 0.055388,0.03516 0.095703,0.03516 h 0.6367187 c 0.051653,0 0.1019501,-0.01815 0.1523436,-0.05469 0.050394,-0.03779 0.084618,-0.08311 0.1035158,-0.134765 l 0.062499,-0.167969 c 0.0038,-0.01134 0.0059,-0.02312 0.0059,-0.0332 0,-0.04157 -0.022312,-0.06055 -0.066406,-0.06055 H 9.750583 c -0.052913,0 -0.1039031,0.01885 -0.1542967,0.05664 -0.050394,0.03653 -0.086571,0.07921 -0.1054688,0.130859 l -0.039063,0.111328 H 9.3306613 l 0.2539062,-0.697266 h 0.1210938 l -0.041016,0.111329 c -0.00882,0.02268 -0.011719,0.04429 -0.011719,0.06445 0,0.03654 0.011219,0.06786 0.035156,0.0918 0.023937,0.02268 0.055388,0.0332 0.095703,0.0332 h 0.1640622 c 0.026457,0 0.050975,-0.0078 0.076171,-0.02539 0.0252,-0.0189 0.04266,-0.0419 0.05273,-0.06836 l 0.06055,-0.167969 c 0.0076,-0.02268 0.01172,-0.0443 0.01172,-0.06445 0,-0.03653 -0.01122,-0.06717 -0.03516,-0.08984 -0.02394,-0.02394 -0.05734,-0.03516 -0.09766,-0.03516 H 9.3814415 c -0.00646,0 -0.013094,-5.91e-4 -0.019531,0 z" />
  </g>
</svg>