
<svg
   width="120"
   height="120"
   viewBox="0 0 120 120"
   version="1.1"
   id="svg1"
   xmlns="http://www.w3.org/2000/svg"
   xmlns:svg="http://www.w3.org/2000/svg">
  <defs
     id="defs1" />
  <g
     id="layer1"
     style="fill:#ffff00">
    <rect
       style="font-variation-settings:normal;opacity:0.95;vector-effect:none;fill:#ffff00;fill-opacity:1;fill-rule:evenodd;stroke-width:1.75748;stroke-linecap:butt;stroke-linejoin:miter;stroke-miterlimit:4;stroke-dasharray:none;stroke-dashoffset:0;stroke-opacity:1;-inkscape-stroke:none;stop-color:#000000;stop-opacity:1"
       id="rect9"
       width="0"
       height="0"
       x="7.0718231"
       y="53.480659" />
    <rect
       style="font-variation-settings:normal;opacity:0.95;vector-effect:none;fill:#ffffff;fill-opacity:1;fill-rule:evenodd;stroke-width:1.75748;stroke-linecap:butt;stroke-linejoin:miter;stroke-miterlimit:4;stroke-dasharray:none;stroke-dashoffset:0;stroke-opacity:1;-inkscape-stroke:none;stop-color:#000000;stop-opacity:1"
       id="rect13"
       width="120"
       height="120"
       x="3.159181e-08"
       y="-6.3753276e-07"
       ry="2.8708134" />
    <path
       id="path12"
       style="font-variation-settings:normal;opacity:0.95;vector-effect:none;fill:#d45500;fill-opacity:1;fill-rule:evenodd;stroke-width:1.75748;stroke-linecap:butt;stroke-linejoin:miter;stroke-miterlimit:4;stroke-dasharray:none;stroke-dashoffset:0;stroke-opacity:1;-inkscape-stroke:none;stop-color:#000000;stop-opacity:1"
       d="m 54.486328,25.4375 a 35,35 0 0 0 -15.99414,6.951172 c 2.468761,-1.116195 6.814709,-2.271093 13.513671,-3.84375 1.766889,-0.855986 2.325247,-1.966256 2.480469,-3.107422 z m 11.025391,0 c 0.155041,1.141241 0.713296,2.251298 2.480469,3.107422 6.703157,1.573641 11.051108,2.728514 13.519531,3.845703 a 35,35 0 0 0 -16,-6.953125 z m -14.986328,6.335938 c -2.804927,0.03778 -6.694766,1.843524 -12.167969,6.583984 -18.961845,21.89281 9.045048,18.452137 9.242187,21.576172 9.99e-4,0.02201 9.99e-4,0.04374 0,0.06641 9.99e-4,0.02268 9.99e-4,0.0444 0,0.06641 -0.197141,3.124052 -28.204032,-0.316637 -9.242187,21.576172 21.89281,18.961844 18.452138,-9.045037 21.576172,-9.242187 0.02201,-10e-4 0.04374,-10e-4 0.06641,0 0.02268,-10e-4 0.0444,-10e-4 0.06641,0 3.124055,0.19715 -0.316634,28.204031 21.576172,9.242187 18.961844,-21.892805 -9.045045,-18.452117 -9.242187,-21.576172 -0.0014,-0.02201 -0.0014,-0.04373 0,-0.06641 -0.0014,-0.02267 -0.0014,-0.0444 0,-0.06641 0.197142,-3.124033 28.204031,0.316638 9.242187,-21.576172 -21.892809,-18.961845 -18.45212,9.045048 -21.576172,9.242187 -0.02201,10e-4 -0.04373,10e-4 -0.06641,0 -0.02267,10e-4 -0.0444,10e-4 -0.06641,0 -2.343026,-0.147855 -0.993425,-15.93952 -9.408203,-15.826171 z m 33.541015,2.8125 c 0.142306,0.669986 -0.187347,1.402447 -0.910156,2.257812 0.748711,-0.632303 1.403373,-0.963746 2.003906,-0.941406 0.08514,0.0032 0.16883,0.01372 0.251953,0.03125 a 35,35 0 0 0 -1.345703,-1.347656 z m -48.132812,0.002 a 35,35 0 0 0 -1.345703,1.345703 c 0.08312,-0.01753 0.166813,-0.02808 0.251953,-0.03125 0.600944,-0.02236 1.2565,0.308251 2.005859,0.941406 -0.633156,-0.749359 -0.965719,-1.402963 -0.943359,-2.003906 0.0032,-0.08514 0.01372,-0.168831 0.03125,-0.251953 z m -3.544922,3.904297 A 35,35 0 0 0 25.4375,54.486328 c 1.141166,-0.155222 2.251436,-0.71358 3.107422,-2.480469 1.572656,-6.698961 2.727556,-11.04491 3.84375,-13.513671 z m 55.222656,0 c 1.116197,2.468758 2.27109,6.814696 3.84375,13.513671 0.855985,1.766891 1.966254,2.325244 3.107422,2.480469 a 35,35 0 0 0 -6.951172,-15.99414 z m -31.703125,11.33789 c 0.753888,0 1.408562,0.260608 1.962891,0.78125 0.554329,0.520642 0.832031,1.158718 0.832031,1.916016 v 11.501953 c 0,1.11228 0.310792,2.093353 0.931641,2.945312 0.620848,0.828294 1.418912,1.244141 2.394531,1.244141 0.997792,0 1.751736,-0.367931 2.261719,-1.101562 0.509982,-0.757298 0.763672,-1.644491 0.763672,-2.66211 0,-1.372601 -0.365943,-2.342183 -1.097657,-2.910156 -0.84258,-0.544308 -1.451181,-0.960154 -1.828125,-1.244141 -0.687368,-0.544307 -1.03125,-1.145958 -1.03125,-1.808593 v -5.822266 c 0,-0.804629 0.288732,-1.47913 0.865235,-2.023438 0.576502,-0.544307 1.264266,-0.816406 2.0625,-0.816406 0.84258,0 1.572511,0.28359 2.193359,0.851563 0.620848,0.544307 0.931641,1.24179 0.931641,2.09375 v 11.324218 c 0,1.798582 -0.720854,3.277889 -2.16211,4.4375 -1.352562,1.088615 -2.97075,1.632813 -4.855469,1.632813 -1.951237,0 -3.602515,-0.4733 -4.955078,-1.419922 -1.552121,-1.088615 -2.328125,-2.520006 -2.328125,-4.294922 V 52.669922 c 0,-0.828294 0.299763,-1.502796 0.898438,-2.023438 0.620848,-0.544307 1.339749,-0.816406 2.160156,-0.816406 z M 25.4375,65.511719 a 35,35 0 0 0 6.953125,16 C 31.273437,79.043296 30.118563,74.69534 28.544922,67.992188 27.688799,66.225016 26.57874,65.66676 25.4375,65.511719 Z m 69.125,0 c -1.141239,0.155036 -2.251299,0.713297 -3.107422,2.480469 -1.573379,6.702038 -2.728782,11.048792 -3.845703,13.517578 A 35,35 0 0 0 94.5625,65.511719 Z M 36.84375,83.15625 c -0.855365,0.722808 -1.587826,1.052461 -2.257812,0.910156 a 35,35 0 0 0 1.347656,1.345703 c -0.01753,-0.08312 -0.02808,-0.166814 -0.03125,-0.251953 -0.02234,-0.60054 0.309102,-1.255197 0.941406,-2.003906 z m 46.314453,0.002 c 0.721511,0.854238 1.049899,1.584656 0.908203,2.253906 a 35,35 0 0 0 1.345703,-1.345703 C 84.74286,84.2081 84.012442,83.879712 83.158203,83.158203 Z m -1.648437,4.451172 c -2.468785,1.116923 -6.815537,2.272325 -13.517578,3.845703 -1.76717,0.856123 -2.325433,1.966183 -2.480469,3.107422 a 35,35 0 0 0 15.998047,-6.953125 z m -43.017578,0.002 A 35,35 0 0 0 54.486328,94.5625 C 54.331103,93.421332 53.772751,92.311062 52.005859,91.455078 45.306895,89.882421 40.960948,88.727523 38.492188,87.611328 Z" />
  </g>
</svg>
