<?xml version="1.0" encoding="UTF-8" standalone="no"?>
<svg
   width="120"
   height="120"
   viewBox="0 0 120 120"
   version="1.1"
   id="svg1"
   inkscape:export-xdpi="96"
   inkscape:export-ydpi="96"
   inkscape:version="1.4.2 (f4327f4, 2025-05-13)"
   sodipodi:docname="logo.svg"
   xmlns:inkscape="http://www.inkscape.org/namespaces/inkscape"
   xmlns:sodipodi="http://sodipodi.sourceforge.net/DTD/sodipodi-0.dtd"
   xmlns="http://www.w3.org/2000/svg"
   xmlns:svg="http://www.w3.org/2000/svg">
  <sodipodi:namedview
     id="namedview1"
     pagecolor="#ffffff"
     bordercolor="#999999"
     borderopacity="1"
     inkscape:showpageshadow="2"
     inkscape:pageopacity="0"
     inkscape:pagecheckerboard="0"
     inkscape:deskcolor="#d1d1d1"
     inkscape:zoom="4.525"
     inkscape:cx="60.110497"
     inkscape:cy="59.779006"
     inkscape:window-width="1366"
     inkscape:window-height="745"
     inkscape:window-x="-8"
     inkscape:window-y="-8"
     inkscape:window-maximized="1"
     inkscape:current-layer="layer1" />
  <defs
     id="defs1" />
  <g
     id="layer1"
     style="fill:#ffff00">
    <rect
       style="font-variation-settings:normal;opacity:0.95;vector-effect:none;fill:#ffff00;fill-opacity:1;fill-rule:evenodd;stroke-width:1.75748;stroke-linecap:butt;stroke-linejoin:miter;stroke-miterlimit:4;stroke-dasharray:none;stroke-dashoffset:0;stroke-opacity:1;-inkscape-stroke:none;stop-color:#000000;stop-opacity:1"
       id="rect9"
       width="0"
       height="0"
       x="7.0718231"
       y="53.480659" />
    <rect
       style="font-variation-settings:normal;opacity:0.95;vector-effect:none;fill:#00002b;fill-opacity:1;fill-rule:evenodd;stroke-width:1.75748;stroke-linecap:butt;stroke-linejoin:miter;stroke-miterlimit:4;stroke-dasharray:none;stroke-dashoffset:0;stroke-opacity:1;-inkscape-stroke:none;stop-color:#000000;stop-opacity:1"
       id="rect13"
       width="120"
       height="120"
       x="3.159181e-08"
       y="-6.3753276e-07"
       ry="2.8708134"
       inkscape:export-filename="rect-slate.svg"
       inkscape:export-xdpi="800"
       inkscape:export-ydpi="800" />
    <path
       id="path12"
       style="font-variation-settings:normal;opacity:0.95;vector-effect:none;fill:#d45500;fill-opacity:1;fill-rule:evenodd;stroke-width:1.75748;stroke-linecap:butt;stroke-linejoin:miter;stroke-miterlimit:4;stroke-dasharray:none;stroke-dashoffset:0;stroke-opacity:1;-inkscape-stroke:none;stop-color:#000000;stop-opacity:1"
       d="M 54.486328 25.4375 A 35 35 0 0 0 38.492188 32.388672 C 40.960949 31.272477 45.306897 30.117579 52.005859 28.544922 C 53.772748 27.688936 54.331106 26.578666 54.486328 25.4375 z M 65.511719 25.4375 C 65.66676 26.578741 66.225015 27.688798 67.992188 28.544922 C 74.695345 30.118563 79.043296 31.273436 81.511719 32.390625 A 35 35 0 0 0 65.511719 25.4375 z M 50.525391 31.773438 C 47.720464 31.811219 43.830625 33.616962 38.357422 38.357422 C 19.395577 60.250232 47.40247 56.809559 47.599609 59.933594 C 47.600608 59.955604 47.600608 59.97733 47.599609 60 C 47.600608 60.02268 47.600608 60.044396 47.599609 60.066406 C 47.402468 63.190458 19.395577 59.749769 38.357422 81.642578 C 60.250232 100.60442 56.80956 72.597541 59.933594 72.400391 C 59.955604 72.399391 59.97733 72.399391 60 72.400391 C 60.02268 72.399391 60.044396 72.399391 60.066406 72.400391 C 63.190461 72.597541 59.749772 100.60442 81.642578 81.642578 C 100.60442 59.749773 72.597533 63.190461 72.400391 60.066406 C 72.398991 60.044396 72.398991 60.02268 72.400391 60 C 72.398991 59.97733 72.398991 59.955604 72.400391 59.933594 C 72.597533 56.809561 100.60442 60.250232 81.642578 38.357422 C 59.749769 19.395577 63.190458 47.40247 60.066406 47.599609 C 60.044396 47.600609 60.02268 47.600609 60 47.599609 C 59.97733 47.600609 59.955604 47.600609 59.933594 47.599609 C 57.590568 47.451754 58.940169 31.660089 50.525391 31.773438 z M 84.066406 34.585938 C 84.208712 35.255924 83.879059 35.988385 83.15625 36.84375 C 83.904961 36.211447 84.559623 35.880004 85.160156 35.902344 C 85.245297 35.905512 85.328986 35.916064 85.412109 35.933594 A 35 35 0 0 0 84.066406 34.585938 z M 35.933594 34.587891 A 35 35 0 0 0 34.587891 35.933594 C 34.671013 35.916064 34.754704 35.905511 34.839844 35.902344 C 35.440788 35.879984 36.096344 36.210595 36.845703 36.84375 C 36.212547 36.094391 35.879984 35.440787 35.902344 34.839844 C 35.905511 34.754704 35.916064 34.671013 35.933594 34.587891 z M 32.388672 38.492188 A 35 35 0 0 0 25.4375 54.486328 C 26.578666 54.331106 27.688936 53.772748 28.544922 52.005859 C 30.117578 45.306898 31.272478 40.960949 32.388672 38.492188 z M 87.611328 38.492188 C 88.727525 40.960946 89.882418 45.306884 91.455078 52.005859 C 92.311063 53.77275 93.421332 54.331103 94.5625 54.486328 A 35 35 0 0 0 87.611328 38.492188 z M 55.908203 49.830078 C 56.662091 49.830078 57.316765 50.090686 57.871094 50.611328 C 58.425423 51.13197 58.703125 51.770046 58.703125 52.527344 L 58.703125 64.029297 C 58.703125 65.141577 59.013917 66.12265 59.634766 66.974609 C 60.255614 67.802903 61.053678 68.21875 62.029297 68.21875 C 63.027089 68.21875 63.781033 67.850819 64.291016 67.117188 C 64.800998 66.35989 65.054688 65.472697 65.054688 64.455078 C 65.054688 63.082477 64.688745 62.112895 63.957031 61.544922 C 63.114451 61.000614 62.50585 60.584768 62.128906 60.300781 C 61.441538 59.756474 61.097656 59.154823 61.097656 58.492188 L 61.097656 52.669922 C 61.097656 51.865293 61.386388 51.190792 61.962891 50.646484 C 62.539393 50.102177 63.227157 49.830078 64.025391 49.830078 C 64.867971 49.830078 65.597902 50.113668 66.21875 50.681641 C 66.839598 51.225948 67.150391 51.923431 67.150391 52.775391 L 67.150391 64.099609 C 67.150391 65.898191 66.429537 67.377498 64.988281 68.537109 C 63.635719 69.625724 62.017531 70.169922 60.132812 70.169922 C 58.181575 70.169922 56.530297 69.696622 55.177734 68.75 C 53.625613 67.661385 52.849609 66.229994 52.849609 64.455078 L 52.849609 52.669922 C 52.849609 51.841628 53.149372 51.167126 53.748047 50.646484 C 54.368895 50.102177 55.087796 49.830078 55.908203 49.830078 z M 25.4375 65.511719 A 35 35 0 0 0 32.390625 81.511719 C 31.273437 79.043296 30.118563 74.69534 28.544922 67.992188 C 27.688799 66.225016 26.57874 65.66676 25.4375 65.511719 z M 94.5625 65.511719 C 93.421261 65.666755 92.311201 66.225016 91.455078 67.992188 C 89.881699 74.694226 88.726296 79.04098 87.609375 81.509766 A 35 35 0 0 0 94.5625 65.511719 z M 36.84375 83.15625 C 35.988385 83.879058 35.255924 84.208711 34.585938 84.066406 A 35 35 0 0 0 35.933594 85.412109 C 35.916064 85.328987 35.905511 85.245295 35.902344 85.160156 C 35.880004 84.559616 36.211446 83.904959 36.84375 83.15625 z M 83.158203 83.158203 C 83.879714 84.012441 84.208102 84.742859 84.066406 85.412109 A 35 35 0 0 0 85.412109 84.066406 C 84.74286 84.2081 84.012442 83.879712 83.158203 83.158203 z M 81.509766 87.609375 C 79.040981 88.726298 74.694229 89.8817 67.992188 91.455078 C 66.225018 92.311201 65.666755 93.421261 65.511719 94.5625 A 35 35 0 0 0 81.509766 87.609375 z M 38.492188 87.611328 A 35 35 0 0 0 54.486328 94.5625 C 54.331103 93.421332 53.772751 92.311062 52.005859 91.455078 C 45.306895 89.882421 40.960948 88.727523 38.492188 87.611328 z " />
  </g>
</svg>
